Exo-DemiboldItalic.ufo
<glyph name="six" format="1">
  <advance width="613"/>
  <unicode hex="0036"/>
  <note>
    GF Latin Plus glyph
  </note>
  <outline>
    <contour>
      <point x="234" y="330" type="curve"/>
      <point x="381" y="330" type="line" smooth="yes"/>
      <point x="444" y="330"/>
      <point x="479" y="319"/>
      <point x="479" y="272" type="curve" smooth="yes"/>
      <point x="479" y="264"/>
      <point x="478" y="257"/>
      <point x="477" y="248" type="curve" smooth="yes"/>
      <point x="468" y="189" type="line" smooth="yes"/>
      <point x="458" y="127"/>
      <point x="422" y="107"/>
      <point x="373" y="107" type="curve" smooth="yes"/>
      <point x="314" y="107" type="line" smooth="yes"/>
      <point x="255" y="107"/>
      <point x="224" y="133"/>
      <point x="224" y="222" type="curve" smooth="yes"/>
      <point x="224" y="251"/>
      <point x="228" y="286"/>
    </contour>
    <contour>
      <point x="101" y="208" type="curve" smooth="yes"/>
      <point x="101" y="41"/>
      <point x="165" y="-4"/>
      <point x="272" y="-4" type="curve" smooth="yes"/>
      <point x="382" y="-4" type="line" smooth="yes"/>
      <point x="485" y="-4"/>
      <point x="568" y="43"/>
      <point x="587" y="166" type="curve" smooth="yes"/>
      <point x="604" y="271" type="line" smooth="yes"/>
      <point x="606" y="285"/>
      <point x="608" y="299"/>
      <point x="608" y="312" type="curve" smooth="yes"/>
      <point x="608" y="394"/>
      <point x="552" y="435"/>
      <point x="431" y="435" type="curve" smooth="yes"/>
      <point x="368" y="435"/>
      <point x="301" y="432"/>
      <point x="248" y="420" type="curve"/>
      <point x="271" y="562"/>
      <point x="340" y="633"/>
      <point x="441" y="633" type="curve" smooth="yes"/>
      <point x="617" y="633" type="line"/>
      <point x="633" y="730" type="line"/>
      <point x="581" y="739"/>
      <point x="511" y="744"/>
      <point x="449" y="744" type="curve" smooth="yes"/>
      <point x="197" y="744"/>
      <point x="101" y="506"/>
    </contour>
  </outline>
</glyph>
<glyph name="eight" format="1">
  <advance width="633"/>
  <unicode hex="0038"/>
  <note>
    GF Latin Plus glyph
  </note>
  <outline>
    <contour>
      <point x="282" y="506" type="curve" smooth="yes"/>
      <point x="290" y="561" type="line" smooth="yes"/>
      <point x="300" y="620"/>
      <point x="326" y="639"/>
      <point x="378" y="639" type="curve" smooth="yes"/>
      <point x="464" y="639" type="line" smooth="yes"/>
      <point x="501" y="639"/>
      <point x="523" y="627"/>
      <point x="523" y="586" type="curve" smooth="yes"/>
      <point x="523" y="579"/>
      <point x="522" y="570"/>
      <point x="520" y="561" type="curve" smooth="yes"/>
      <point x="512" y="506" type="line" smooth="yes"/>
      <point x="506" y="466"/>
      <point x="484" y="430"/>
      <point x="428" y="430" type="curve" smooth="yes"/>
      <point x="344" y="430" type="line" smooth="yes"/>
      <point x="300" y="430"/>
      <point x="280" y="449"/>
      <point x="280" y="484" type="curve" smooth="yes"/>
      <point x="280" y="490"/>
      <point x="281" y="497"/>
    </contour>
    <contour>
      <point x="218" y="174" type="curve" smooth="yes"/>
      <point x="230" y="249" type="line" smooth="yes"/>
      <point x="238" y="302"/>
      <point x="289" y="324"/>
      <point x="327" y="324" type="curve" smooth="yes"/>
      <point x="412" y="324" type="line" smooth="yes"/>
      <point x="463" y="324"/>
      <point x="485" y="306"/>
      <point x="485" y="268" type="curve" smooth="yes"/>
      <point x="485" y="262"/>
      <point x="484" y="256"/>
      <point x="483" y="249" type="curve" smooth="yes"/>
      <point x="471" y="174" type="line" smooth="yes"/>
      <point x="464" y="127"/>
      <point x="439" y="102"/>
      <point x="379" y="102" type="curve" smooth="yes"/>
      <point x="292" y="102" type="line" smooth="yes"/>
      <point x="246" y="102"/>
      <point x="216" y="117"/>
      <point x="216" y="156" type="curve" smooth="yes"/>
      <point x="216" y="162"/>
      <point x="217" y="167"/>
    </contour>
    <contour>
      <point x="90" y="149" type="line" smooth="yes"/>
      <point x="88" y="137"/>
      <point x="87" y="125"/>
      <point x="87" y="112" type="curve" smooth="yes"/>
      <point x="87" y="50"/>
      <point x="123" y="-4"/>
      <point x="249" y="-4" type="curve" smooth="yes"/>
      <point x="396" y="-4" type="line" smooth="yes"/>
      <point x="494" y="-4"/>
      <point x="572" y="31"/>
      <point x="591" y="152" type="curve" smooth="yes"/>
      <point x="609" y="259" type="line" smooth="yes"/>
      <point x="610" y="269"/>
      <point x="611" y="280"/>
      <point x="611" y="292" type="curve" smooth="yes"/>
      <point x="611" y="335"/>
      <point x="594" y="376"/>
      <point x="545" y="387" type="curve"/>
      <point x="598" y="399"/>
      <point x="627" y="467"/>
      <point x="633" y="505" type="curve" smooth="yes"/>
      <point x="646" y="590" type="line" smooth="yes"/>
      <point x="648" y="606"/>
      <point x="650" y="620"/>
      <point x="650" y="633" type="curve" smooth="yes"/>
      <point x="650" y="713"/>
      <point x="603" y="744"/>
      <point x="516" y="744" type="curve" smooth="yes"/>
      <point x="368" y="744" type="line" smooth="yes"/>
      <point x="275" y="744"/>
      <point x="193" y="709"/>
      <point x="174" y="591" type="curve" smooth="yes"/>
      <point x="161" y="505" type="line" smooth="yes"/>
      <point x="159" y="491"/>
      <point x="157" y="477"/>
      <point x="157" y="463" type="curve" smooth="yes"/>
      <point x="157" y="428"/>
      <point x="171" y="396"/>
      <point x="212" y="375" type="curve"/>
      <point x="163" y="365"/>
      <point x="117" y="317"/>
      <point x="107" y="255" type="curve" smooth="yes"/>
    </contour>
  </outline>
</glyph>
<glyph name="B" format="1">
  <advance width="628"/>
  <unicode hex="0042"/>
  <note>
    GF Latin Plus glyph
  </note>
  <outline>
    <contour>
      <point x="257" y="427" type="line"/>
      <point x="289" y="627" type="line"/>
      <point x="433" y="627" type="line" smooth="yes"/>
      <point x="490" y="627"/>
      <point x="522" y="608"/>
      <point x="522" y="558" type="curve" smooth="yes"/>
      <point x="522" y="545"/>
      <point x="520" y="533"/>
      <point x="517" y="517" type="curve" smooth="yes"/>
      <point x="505" y="463"/>
      <point x="475" y="427"/>
      <point x="413" y="427" type="curve" smooth="yes"/>
    </contour>
    <contour>
      <point x="207" y="111" type="line"/>
      <point x="242" y="332" type="line"/>
      <point x="399" y="332" type="line" smooth="yes"/>
      <point x="461" y="332"/>
      <point x="495" y="303"/>
      <point x="495" y="249" type="curve" smooth="yes"/>
      <point x="495" y="240"/>
      <point x="495" y="229"/>
      <point x="493" y="217" type="curve" smooth="yes"/>
      <point x="479" y="147"/>
      <point x="447" y="111"/>
      <point x="365" y="111" type="curve" smooth="yes"/>
    </contour>
    <contour>
      <point x="66" y="0" type="line"/>
      <point x="349" y="0" type="line" smooth="yes"/>
      <point x="498" y="0"/>
      <point x="584" y="53"/>
      <point x="606" y="177" type="curve" smooth="yes"/>
      <point x="612" y="206"/>
      <point x="612" y="223"/>
      <point x="612" y="237" type="curve" smooth="yes"/>
      <point x="612" y="326"/>
      <point x="565" y="368"/>
      <point x="504" y="385" type="curve"/>
      <point x="576" y="401"/>
      <point x="628" y="459"/>
      <point x="640" y="539" type="curve" smooth="yes"/>
      <point x="643" y="557"/>
      <point x="644" y="573"/>
      <point x="644" y="590" type="curve" smooth="yes"/>
      <point x="644" y="679"/>
      <point x="600" y="738"/>
      <point x="458" y="738" type="curve" smooth="yes"/>
      <point x="182" y="738" type="line"/>
    </contour>
    <contour>
      <point x="406" y="810" type="move" name="top"/>
    </contour>
  </outline>
</glyph>
<glyph name="C" format="1">
  <advance width="591"/>
  <unicode hex="0043"/>
  <note>
    GF Latin Plus glyph
  </note>
  <outline>
    <contour>
      <point x="111" y="390" type="curve" smooth="yes"/>
      <point x="103" y="340"/>
      <point x="98" y="285"/>
      <point x="98" y="238" type="curve" smooth="yes"/>
      <point x="98" y="83"/>
      <point x="169" y="-6"/>
      <point x="329" y="-6" type="curve" smooth="yes"/>
      <point x="398" y="-6"/>
      <point x="477" y="0"/>
      <point x="543" y="21" type="curve"/>
      <point x="559" y="118" type="line"/>
      <point x="503" y="110"/>
      <point x="454" y="105"/>
      <point x="362" y="105" type="curve" smooth="yes"/>
      <point x="258" y="105"/>
      <point x="221" y="145"/>
      <point x="221" y="237" type="curve" smooth="yes"/>
      <point x="221" y="272"/>
      <point x="226" y="320"/>
      <point x="234" y="366" type="curve" smooth="yes"/>
      <point x="269" y="578"/>
      <point x="326" y="633"/>
      <point x="440" y="633" type="curve" smooth="yes"/>
      <point x="509" y="633"/>
      <point x="578" y="623"/>
      <point x="637" y="610" type="curve"/>
      <point x="653" y="707" type="line"/>
      <point x="605" y="723"/>
      <point x="530" y="744"/>
      <point x="419" y="744" type="curve" smooth="yes"/>
      <point x="233" y="744"/>
      <point x="147" y="621"/>
    </contour>
    <contour>
      <point x="447" y="810" type="move" name="top"/>
    </contour>
    <contour>
      <point x="303" y="-150" type="move" name="bottom"/>
    </contour>
  </outline>
</glyph>
<glyph name="D" format="1">
  <advance width="682"/>
  <unicode hex="0044"/>
  <note>
    GF Latin Plus glyph
  </note>
  <outline>
    <contour>
      <point x="207" y="111" type="line"/>
      <point x="288" y="627" type="line"/>
      <point x="427" y="627" type="line" smooth="yes"/>
      <point x="538" y="627"/>
      <point x="575" y="581"/>
      <point x="575" y="477" type="curve" smooth="yes"/>
      <point x="575" y="452"/>
      <point x="571" y="415"/>
      <point x="564" y="370" type="curve" smooth="yes"/>
      <point x="539" y="212"/>
      <point x="480" y="111"/>
      <point x="352" y="111" type="curve" smooth="yes"/>
    </contour>
    <contour>
      <point x="65" y="0" type="line"/>
      <point x="340" y="0" type="line" smooth="yes"/>
      <point x="545" y="0"/>
      <point x="651" y="117"/>
      <point x="688" y="349" type="curve" smooth="yes"/>
      <point x="695" y="393"/>
      <point x="699" y="438"/>
      <point x="699" y="481" type="curve" smooth="yes"/>
      <point x="699" y="640"/>
      <point x="645" y="738"/>
      <point x="457" y="738" type="curve" smooth="yes"/>
      <point x="182" y="738" type="line"/>
    </contour>
    <contour>
      <point x="437" y="810" type="move" name="top"/>
    </contour>
    <contour>
      <point x="285" y="-150" type="move" name="bottom"/>
    </contour>
  </outline>
</glyph>
<glyph name="G" format="1">
  <advance width="654"/>
  <unicode hex="0047"/>
  <note>
    GF Latin Plus glyph
  </note>
  <outline>
    <contour>
      <point x="112" y="396" type="curve" smooth="yes"/>
      <point x="103" y="338"/>
      <point x="96" y="280"/>
      <point x="96" y="225" type="curve" smooth="yes"/>
      <point x="96" y="66"/>
      <point x="148" y="-6"/>
      <point x="287" y="-6" type="curve" smooth="yes"/>
      <point x="353" y="-6"/>
      <point x="455" y="30"/>
      <point x="492" y="51" type="curve"/>
      <point x="502" y="0" type="line"/>
      <point x="594" y="0" type="line"/>
      <point x="659" y="410" type="line"/>
      <point x="636" y="411"/>
      <point x="587" y="412"/>
      <point x="558" y="412" type="curve" smooth="yes"/>
      <point x="482" y="412"/>
      <point x="426" y="408"/>
      <point x="390" y="404" type="curve"/>
      <point x="375" y="307" type="line"/>
      <point x="524" y="307" type="line"/>
      <point x="497" y="136" type="line"/>
      <point x="466" y="125"/>
      <point x="385" y="108"/>
      <point x="330" y="108" type="curve" smooth="yes"/>
      <point x="252" y="108"/>
      <point x="221" y="150"/>
      <point x="221" y="233" type="curve" smooth="yes"/>
      <point x="221" y="268"/>
      <point x="225" y="312"/>
      <point x="234" y="368" type="curve" smooth="yes"/>
      <point x="263" y="553"/>
      <point x="307" y="635"/>
      <point x="443" y="635" type="curve" smooth="yes"/>
      <point x="544" y="635"/>
      <point x="617" y="625"/>
      <point x="663" y="616" type="curve"/>
      <point x="678" y="712" type="line"/>
      <point x="618" y="730"/>
      <point x="548" y="745"/>
      <point x="430" y="745" type="curve" smooth="yes"/>
      <point x="244" y="745"/>
      <point x="148" y="621"/>
    </contour>
    <contour>
      <point x="450" y="810" type="move" name="top"/>
    </contour>
    <contour>
      <point x="298" y="-150" type="move" name="bottom"/>
    </contour>
  </outline>
</glyph>
<glyph name="I" format="1">
  <advance width="254"/>
  <unicode hex="0049"/>
  <note>
    GF Latin Plus glyph
  </note>
  <outline>
    <contour>
      <point x="65" y="0" type="line"/>
      <point x="189" y="0" type="line"/>
      <point x="306" y="738" type="line"/>
      <point x="182" y="738" type="line"/>
    </contour>
    <contour>
      <point x="255" y="810" type="move" name="top"/>
    </contour>
    <contour>
      <point x="179" y="0" type="move" name="ogonek"/>
    </contour>
    <contour>
      <point x="103" y="-150" type="move" name="bottom"/>
    </contour>
  </outline>
</glyph>
<glyph name="P" format="1">
  <advance width="606"/>
  <unicode hex="0050"/>
  <note>
    GF Latin Plus glyph
  </note>
  <outline>
    <contour>
      <point x="245" y="356" type="line"/>
      <point x="288" y="627" type="line"/>
      <point x="448" y="627" type="line" smooth="yes"/>
      <point x="501" y="627"/>
      <point x="531" y="604"/>
      <point x="531" y="539" type="curve" smooth="yes"/>
      <point x="531" y="529"/>
      <point x="528" y="507"/>
      <point x="525" y="489" type="curve" smooth="yes"/>
      <point x="511" y="396"/>
      <point x="463" y="356"/>
      <point x="401" y="356" type="curve" smooth="yes"/>
    </contour>
    <contour>
      <point x="65" y="0" type="line"/>
      <point x="189" y="0" type="line"/>
      <point x="231" y="260" type="line"/>
      <point x="277" y="253"/>
      <point x="352" y="245"/>
      <point x="416" y="245" type="curve" smooth="yes"/>
      <point x="515" y="245"/>
      <point x="620" y="296"/>
      <point x="648" y="476" type="curve" smooth="yes"/>
      <point x="652" y="499"/>
      <point x="657" y="532"/>
      <point x="657" y="551" type="curve" smooth="yes"/>
      <point x="657" y="696"/>
      <point x="575" y="738"/>
      <point x="472" y="738" type="curve" smooth="yes"/>
      <point x="182" y="738" type="line"/>
    </contour>
    <contour>
      <point x="411" y="810" type="move" name="top"/>
    </contour>
  </outline>
</glyph>
<glyph name="T" format="1">
  <advance width="608"/>
  <unicode hex="0054"/>
  <note>
    GF Latin Plus glyph
  </note>
  <outline>
    <contour>
      <point x="123" y="627" type="line"/>
      <point x="336" y="627" type="line"/>
      <point x="237" y="0" type="line"/>
      <point x="361" y="0" type="line"/>
      <point x="460" y="627" type="line"/>
      <point x="673" y="627" type="line"/>
      <point x="691" y="738" type="line"/>
      <point x="141" y="738" type="line"/>
    </contour>
    <contour>
      <point x="425" y="810" type="move" name="top"/>
    </contour>
    <contour>
      <point x="273" y="-150" type="move" name="bottom"/>
    </contour>
  </outline>
</glyph>
<glyph name="Z" format="1">
  <advance width="565"/>
  <unicode hex="005A"/>
  <note>
    GF Latin Plus glyph
  </note>
  <outline>
    <contour>
      <point x="36" y="0" type="line"/>
      <point x="529" y="0" type="line"/>
      <point x="546" y="111" type="line"/>
      <point x="196" y="111" type="line"/>
      <point x="619" y="633" type="line"/>
      <point x="636" y="738" type="line"/>
      <point x="153" y="738" type="line"/>
      <point x="135" y="627" type="line"/>
      <point x="476" y="627" type="line"/>
      <point x="53" y="105" type="line"/>
    </contour>
    <contour>
      <point x="406" y="810" type="move" name="top"/>
    </contour>
    <contour>
      <point x="254" y="-150" type="move" name="bottom"/>
    </contour>
  </outline>
</glyph>
<glyph name="b" format="1">
  <advance width="577"/>
  <unicode hex="0062"/>
  <note>
    GF Latin Plus glyph
  </note>
  <outline>
    <contour>
      <point x="204" y="131" type="curve"/>
      <point x="248" y="408" type="line"/>
      <point x="288" y="428"/>
      <point x="336" y="442"/>
      <point x="378" y="442" type="curve" smooth="yes"/>
      <point x="425" y="442"/>
      <point x="461" y="415"/>
      <point x="461" y="338" type="curve" smooth="yes"/>
      <point x="461" y="319"/>
      <point x="458" y="295"/>
      <point x="454" y="268" type="curve" smooth="yes"/>
      <point x="436" y="147"/>
      <point x="395" y="94"/>
      <point x="322" y="94" type="curve" smooth="yes"/>
      <point x="268" y="94"/>
      <point x="234" y="110"/>
    </contour>
    <contour>
      <point x="59" y="0" type="line"/>
      <point x="168" y="0" type="line"/>
      <point x="192" y="52" type="line"/>
      <point x="230" y="20"/>
      <point x="295" y="-6"/>
      <point x="358" y="-6" type="curve" smooth="yes"/>
      <point x="472" y="-6"/>
      <point x="549" y="85"/>
      <point x="572" y="236" type="curve" smooth="yes"/>
      <point x="579" y="283"/>
      <point x="584" y="326"/>
      <point x="584" y="357" type="curve" smooth="yes"/>
      <point x="584" y="477"/>
      <point x="519" y="542"/>
      <point x="418" y="542" type="curve" smooth="yes"/>
      <point x="377" y="542"/>
      <point x="313" y="525"/>
      <point x="262" y="497" type="curve"/>
      <point x="304" y="763" type="line"/>
      <point x="180" y="763" type="line"/>
    </contour>
    <contour>
      <point x="256" y="850" type="move" name="top"/>
    </contour>
    <contour>
      <point x="268" y="-150" type="move" name="bottom"/>
    </contour>
  </outline>
</glyph>
<glyph name="f" format="1">
  <advance width="384"/>
  <unicode hex="0066"/>
  <note>
    GF Latin Plus glyph
  </note>
  <outline>
    <contour>
      <point x="88" y="435" type="line"/>
      <point x="165" y="435" type="line"/>
      <point x="96" y="0" type="line"/>
      <point x="220" y="0" type="line"/>
      <point x="289" y="435" type="line"/>
      <point x="431" y="435" type="line"/>
      <point x="447" y="536" type="line"/>
      <point x="305" y="536" type="line"/>
      <point x="312" y="583" type="line" smooth="yes"/>
      <point x="320" y="642"/>
      <point x="339" y="670"/>
      <point x="399" y="670" type="curve" smooth="yes"/>
      <point x="484" y="670" type="line"/>
      <point x="498" y="760" type="line"/>
      <point x="467" y="765"/>
      <point x="422" y="769"/>
      <point x="378" y="769" type="curve" smooth="yes"/>
      <point x="255" y="769"/>
      <point x="210" y="709"/>
      <point x="194" y="616" type="curve" smooth="yes"/>
      <point x="181" y="536" type="line"/>
      <point x="101" y="515" type="line"/>
    </contour>
    <contour>
      <point x="151" y="-150" type="move" name="bottom"/>
    </contour>
  </outline>
</glyph>
<glyph name="i" format="1">
  <advance width="240"/>
  <unicode hex="0069"/>
  <note>
    GF Latin Plus glyph
  </note>
  <outline>
    <contour>
      <point x="157" y="639" type="line" smooth="yes"/>
      <point x="155" y="628"/>
      <point x="162" y="621"/>
      <point x="173" y="621" type="curve" smooth="yes"/>
      <point x="267" y="621" type="line" smooth="yes"/>
      <point x="278" y="621"/>
      <point x="285" y="627"/>
      <point x="287" y="639" type="curve" smooth="yes"/>
      <point x="301" y="730" type="line" smooth="yes"/>
      <point x="303" y="741"/>
      <point x="299" y="750"/>
      <point x="287" y="750" type="curve" smooth="yes"/>
      <point x="193" y="750" type="line" smooth="yes"/>
      <point x="180" y="750"/>
      <point x="173" y="742"/>
      <point x="171" y="730" type="curve" smooth="yes"/>
    </contour>
    <component base="idotless" xOffset="-1"/>
    <contour>
      <point x="173" y="0" type="move" name="ogonek"/>
    </contour>
    <contour>
      <point x="105" y="-150" type="move" name="bottom"/>
    </contour>
  </outline>
</glyph>
<glyph name="p" format="1">
  <advance width="569"/>
  <unicode hex="0070"/>
  <note>
    GF Latin Plus glyph
  </note>
  <outline>
    <contour>
      <point x="200" y="117" type="curve"/>
      <point x="252" y="441" type="line"/>
      <point x="368" y="442" type="line" smooth="yes"/>
      <point x="428" y="442"/>
      <point x="454" y="406"/>
      <point x="454" y="332" type="curve" smooth="yes"/>
      <point x="454" y="312"/>
      <point x="450" y="290"/>
      <point x="448" y="272" type="curve" smooth="yes"/>
      <point x="428" y="153"/>
      <point x="389" y="99"/>
      <point x="303" y="99" type="curve" smooth="yes"/>
      <point x="261" y="99"/>
      <point x="237" y="104"/>
    </contour>
    <contour>
      <point x="21" y="-237" type="line"/>
      <point x="145" y="-237" type="line"/>
      <point x="185" y="19" type="line"/>
      <point x="221" y="1"/>
      <point x="265" y="-6"/>
      <point x="316" y="-6" type="curve" smooth="yes"/>
      <point x="452" y="-6"/>
      <point x="540" y="80"/>
      <point x="566" y="247" type="curve" smooth="yes"/>
      <point x="572" y="283"/>
      <point x="576" y="320"/>
      <point x="576" y="353" type="curve" smooth="yes"/>
      <point x="576" y="479"/>
      <point x="524" y="542"/>
      <point x="401" y="542" type="curve" smooth="yes"/>
      <point x="302" y="542"/>
      <point x="222" y="532"/>
      <point x="141" y="518" type="curve"/>
    </contour>
  </outline>
</glyph>
<glyph name="q" format="1">
  <advance width="568"/>
  <unicode hex="0071"/>
  <note>
    GF Latin Plus glyph
  </note>
  <outline>
    <contour>
      <point x="208" y="274" type="curve" smooth="yes"/>
      <point x="227" y="387"/>
      <point x="265" y="445"/>
      <point x="370" y="442" type="curve" smooth="yes"/>
      <point x="378" y="442"/>
      <point x="446" y="438"/>
      <point x="456" y="435" type="curve"/>
      <point x="408" y="136" type="line"/>
      <point x="367" y="112"/>
      <point x="326" y="94"/>
      <point x="280" y="94" type="curve" smooth="yes"/>
      <point x="232" y="94"/>
      <point x="200" y="129"/>
      <point x="200" y="197" type="curve" smooth="yes"/>
      <point x="200" y="216"/>
      <point x="203" y="242"/>
    </contour>
    <contour>
      <point x="88" y="284" type="curve" smooth="yes"/>
      <point x="82" y="244"/>
      <point x="78" y="208"/>
      <point x="78" y="174" type="curve" smooth="yes"/>
      <point x="78" y="61"/>
      <point x="125" y="-6"/>
      <point x="221" y="-6" type="curve" smooth="yes"/>
      <point x="277" y="-6"/>
      <point x="347" y="18"/>
      <point x="395" y="55" type="curve"/>
      <point x="349" y="-237" type="line"/>
      <point x="473" y="-237" type="line"/>
      <point x="592" y="513" type="line"/>
      <point x="544" y="528"/>
      <point x="453" y="542"/>
      <point x="367" y="542" type="curve" smooth="yes"/>
      <point x="212" y="542"/>
      <point x="118" y="474"/>
    </contour>
  </outline>
</glyph>
<glyph name="y" format="1">
  <advance width="569"/>
  <unicode hex="0079"/>
  <note>
    GF Latin Plus glyph
  </note>
  <outline>
    <contour>
      <point x="93" y="536" type="line"/>
      <point x="146" y="137" type="line" smooth="yes"/>
      <point x="159" y="44"/>
      <point x="196" y="8"/>
      <point x="281" y="0" type="curve"/>
      <point x="236" y="-93"/>
      <point x="172" y="-132"/>
      <point x="96" y="-148" type="curve"/>
      <point x="96" y="-237" type="line"/>
      <point x="221" y="-225"/>
      <point x="312" y="-166"/>
      <point x="393" y="6" type="curve" smooth="yes"/>
      <point x="549" y="335" type="line" smooth="yes"/>
      <point x="586" y="413"/>
      <point x="602" y="480"/>
      <point x="602" y="544" type="curve"/>
      <point x="487" y="544" type="line"/>
      <point x="484" y="500"/>
      <point x="469" y="455"/>
      <point x="455" y="419" type="curve" smooth="yes"/>
      <point x="320" y="102" type="line"/>
      <point x="292" y="104"/>
      <point x="263" y="114"/>
      <point x="256" y="164" type="curve" smooth="yes"/>
      <point x="221" y="536" type="line"/>
    </contour>
    <contour>
      <point x="366" y="650" type="move" name="top"/>
    </contour>
    <contour>
      <point x="468" y="-150" type="move" name="bottom"/>
    </contour>
  </outline>
</glyph>
<glyph name="braceleft" format="1">
  <advance width="315"/>
  <unicode hex="007B"/>
  <note>
    GF Latin Plus glyph
  </note>
  <outline>
    <contour>
      <point x="79" y="276" type="line"/>
      <point x="125" y="276"/>
      <point x="143" y="261"/>
      <point x="143" y="225" type="curve" smooth="yes"/>
      <point x="143" y="196"/>
      <point x="96" y="-31"/>
      <point x="96" y="-86" type="curve" smooth="yes"/>
      <point x="96" y="-166"/>
      <point x="143" y="-210"/>
      <point x="281" y="-210" type="curve"/>
      <point x="296" y="-116" type="line"/>
      <point x="247" y="-116"/>
      <point x="225" y="-98"/>
      <point x="225" y="-51" type="curve" smooth="yes"/>
      <point x="225" y="-17"/>
      <point x="270" y="220"/>
      <point x="270" y="253" type="curve" smooth="yes"/>
      <point x="270" y="295"/>
      <point x="242" y="325"/>
      <point x="189" y="334" type="curve"/>
      <point x="246" y="339"/>
      <point x="290" y="368"/>
      <point x="300" y="432" type="curve" smooth="yes"/>
      <point x="331" y="631" type="line" smooth="yes"/>
      <point x="345" y="722"/>
      <point x="371" y="742"/>
      <point x="432" y="742" type="curve"/>
      <point x="448" y="842" type="line"/>
      <point x="297" y="842"/>
      <point x="233" y="792"/>
      <point x="211" y="656" type="curve" smooth="yes"/>
      <point x="179" y="452" type="line" smooth="yes"/>
      <point x="172" y="406"/>
      <point x="131" y="394"/>
      <point x="97" y="391" type="curve"/>
    </contour>
  </outline>
</glyph>
<glyph name="thorn" format="1">
  <advance width="572"/>
  <unicode hex="00FE"/>
  <note>
    GF Latin Plus glyph
  </note>
  <outline>
    <contour>
      <point x="20" y="-237" type="line"/>
      <point x="145" y="-237" type="line"/>
      <point x="185" y="19" type="line"/>
      <point x="220" y="1"/>
      <point x="266" y="-6"/>
      <point x="317" y="-6" type="curve" smooth="yes"/>
      <point x="453" y="-6"/>
      <point x="540" y="80"/>
      <point x="566" y="247" type="curve" smooth="yes"/>
      <point x="572" y="283"/>
      <point x="576" y="320"/>
      <point x="576" y="353" type="curve" smooth="yes"/>
      <point x="576" y="479"/>
      <point x="524" y="542"/>
      <point x="401" y="542" type="curve" smooth="yes"/>
      <point x="349" y="542"/>
      <point x="304" y="540"/>
      <point x="268" y="537" type="curve"/>
      <point x="304" y="763" type="line"/>
      <point x="179" y="763" type="line"/>
    </contour>
    <contour>
      <point x="201" y="117" type="curve"/>
      <point x="252" y="441" type="line"/>
      <point x="367" y="442" type="line" smooth="yes"/>
      <point x="428" y="442"/>
      <point x="454" y="405"/>
      <point x="454" y="332" type="curve" smooth="yes"/>
      <point x="454" y="312"/>
      <point x="450" y="290"/>
      <point x="448" y="272" type="curve" smooth="yes"/>
      <point x="428" y="153"/>
      <point x="388" y="99"/>
      <point x="302" y="99" type="curve" smooth="yes"/>
      <point x="260" y="99"/>
      <point x="237" y="104"/>
    </contour>
  </outline>
</glyph>
<glyph name="kgreenlandic" format="1">
  <advance width="550"/>
  <unicode hex="0138"/>
  <note>
    GF Latin Plus glyph
  </note>
  <outline>
    <contour>
      <point x="58" y="0" type="line"/>
      <point x="182" y="0" type="line"/>
      <point x="219" y="236" type="line"/>
      <point x="238" y="236"/>
      <point x="269" y="239"/>
      <point x="291" y="245" type="curve"/>
      <point x="415" y="0" type="line"/>
      <point x="543" y="0" type="line"/>
      <point x="396" y="283" type="line"/>
      <point x="461" y="318"/>
      <point x="531" y="385"/>
      <point x="573" y="536" type="curve"/>
      <point x="449" y="536" type="line"/>
      <point x="412" y="402"/>
      <point x="338" y="342"/>
      <point x="234" y="329" type="curve"/>
      <point x="267" y="536" type="line"/>
      <point x="143" y="536" type="line"/>
    </contour>
  </outline>
</glyph>
<glyph name="Schwa" format="1">
  <advance width="622"/>
  <unicode hex="018F"/>
  <note>
    GF Latin Plus glyph
  </note>
  <outline>
    <contour>
      <point x="305" y="-6" type="curve" smooth="yes"/>
      <point x="462" y="-6"/>
      <point x="583" y="64"/>
      <point x="632" y="370" type="curve" smooth="yes"/>
      <point x="640" y="426"/>
      <point x="645" y="474"/>
      <point x="645" y="514" type="curve" smooth="yes"/>
      <point x="645" y="699"/>
      <point x="548" y="745"/>
      <point x="394" y="745" type="curve" smooth="yes"/>
      <point x="309" y="745"/>
      <point x="241" y="732"/>
      <point x="195" y="718" type="curve"/>
      <point x="180" y="623" type="line"/>
      <point x="212" y="627"/>
      <point x="261" y="634"/>
      <point x="343" y="634" type="curve" smooth="yes"/>
      <point x="464" y="634"/>
      <point x="521" y="605"/>
      <point x="521" y="498" type="curve" smooth="yes"/>
      <point x="521" y="474"/>
      <point x="518" y="446"/>
      <point x="513" y="411" type="curve"/>
      <point x="114" y="411" type="line"/>
      <point x="101" y="329" type="line" smooth="yes"/>
      <point x="95" y="286"/>
      <point x="91" y="248"/>
      <point x="91" y="215" type="curve" smooth="yes"/>
      <point x="91" y="56"/>
      <point x="170" y="-6"/>
    </contour>
    <contour>
      <point x="320" y="105" type="curve" smooth="yes"/>
      <point x="243" y="105"/>
      <point x="216" y="144"/>
      <point x="216" y="224" type="curve" smooth="yes"/>
      <point x="216" y="249"/>
      <point x="218" y="277"/>
      <point x="224" y="311" type="curve"/>
      <point x="495" y="311" type="line"/>
      <point x="461" y="148"/>
      <point x="404" y="105"/>
    </contour>
  </outline>
</glyph>
<glyph name="uhorn" format="1">
  <advance width="593"/>
  <unicode hex="01B0"/>
  <note>
    GF Latin Plus glyph
  </note>
  <outline>
    <contour>
      <point x="491" y="468" type="line"/>
      <point x="546" y="468" type="line" smooth="yes"/>
      <point x="626" y="468"/>
      <point x="694" y="524"/>
      <point x="714" y="647" type="curve"/>
      <point x="627" y="647" type="line"/>
      <point x="614" y="564"/>
      <point x="581" y="536"/>
      <point x="535" y="536" type="curve" smooth="yes"/>
      <point x="501" y="536" type="line"/>
    </contour>
    <component base="u"/>
    <contour>
      <point x="369" y="650" type="move" name="top"/>
    </contour>
    <contour>
      <point x="275" y="-150" type="move" name="bottom"/>
    </contour>
  </outline>
</glyph>
<glyph name="verticallinemod" format="1">
  <advance width="158"/>
  <unicode hex="02C8"/>
  <outline>
    <contour>
      <point x="110" y="503" type="line"/>
      <point x="208" y="503" type="line"/>
      <point x="249" y="763" type="line"/>
      <point x="151" y="763" type="line"/>
    </contour>
  </outline>
</glyph>
<glyph name="daggerdbl" format="1">
  <advance width="467"/>
  <unicode hex="2021"/>
  <note>
    GF Latin Plus glyph
  </note>
  <outline>
    <contour>
      <point x="42" y="153" type="line"/>
      <point x="183" y="140" type="line"/>
      <point x="159" y="-72" type="line"/>
      <point x="267" y="-72" type="line"/>
      <point x="310" y="141" type="line"/>
      <point x="457" y="153" type="line"/>
      <point x="471" y="246" type="line"/>
      <point x="330" y="258" type="line"/>
      <point x="360" y="449" type="line"/>
      <point x="505" y="460" type="line"/>
      <point x="520" y="554" type="line"/>
      <point x="378" y="564" type="line"/>
      <point x="401" y="770" type="line"/>
      <point x="293" y="770" type="line"/>
      <point x="251" y="564" type="line"/>
      <point x="105" y="554" type="line"/>
      <point x="90" y="460" type="line"/>
      <point x="233" y="449" type="line"/>
      <point x="203" y="259" type="line"/>
      <point x="56" y="246" type="line"/>
    </contour>
  </outline>
</glyph>
<glyph name="ellipsis" format="1">
  <advance width="816"/>
  <unicode hex="2026"/>
  <note>
    GF Latin Plus glyph
  </note>
  <outline>
    <contour>
      <point x="85" y="18" type="line" smooth="yes"/>
      <point x="84" y="17"/>
      <point x="84" y="16"/>
      <point x="84" y="15" type="curve" smooth="yes"/>
      <point x="84" y="6"/>
      <point x="90" y="0"/>
      <point x="100" y="0" type="curve" smooth="yes"/>
      <point x="171" y="0" type="line" smooth="yes"/>
      <point x="182" y="0"/>
      <point x="192" y="5"/>
      <point x="194" y="18" type="curve" smooth="yes"/>
      <point x="208" y="113" type="line" smooth="yes"/>
      <point x="209" y="114"/>
      <point x="209" y="117"/>
      <point x="209" y="118" type="curve" smooth="yes"/>
      <point x="209" y="127"/>
      <point x="204" y="132"/>
      <point x="192" y="132" type="curve" smooth="yes"/>
      <point x="122" y="132" type="line" smooth="yes"/>
      <point x="109" y="132"/>
      <point x="101" y="125"/>
      <point x="99" y="113" type="curve" smooth="yes"/>
    </contour>
    <contour>
      <point x="357" y="18" type="line" smooth="yes"/>
      <point x="356" y="17"/>
      <point x="356" y="16"/>
      <point x="356" y="15" type="curve" smooth="yes"/>
      <point x="356" y="6"/>
      <point x="362" y="0"/>
      <point x="372" y="0" type="curve" smooth="yes"/>
      <point x="443" y="0" type="line" smooth="yes"/>
      <point x="454" y="0"/>
      <point x="464" y="5"/>
      <point x="466" y="18" type="curve" smooth="yes"/>
      <point x="480" y="113" type="line" smooth="yes"/>
      <point x="481" y="114"/>
      <point x="481" y="117"/>
      <point x="481" y="118" type="curve" smooth="yes"/>
      <point x="481" y="127"/>
      <point x="476" y="132"/>
      <point x="464" y="132" type="curve" smooth="yes"/>
      <point x="394" y="132" type="line" smooth="yes"/>
      <point x="381" y="132"/>
      <point x="373" y="125"/>
      <point x="371" y="113" type="curve" smooth="yes"/>
    </contour>
    <contour>
      <point x="629" y="18" type="line" smooth="yes"/>
      <point x="628" y="17"/>
      <point x="628" y="16"/>
      <point x="628" y="15" type="curve" smooth="yes"/>
      <point x="628" y="6"/>
      <point x="634" y="0"/>
      <point x="644" y="0" type="curve" smooth="yes"/>
      <point x="715" y="0" type="line" smooth="yes"/>
      <point x="726" y="0"/>
      <point x="736" y="5"/>
      <point x="738" y="18" type="curve" smooth="yes"/>
      <point x="752" y="113" type="line" smooth="yes"/>
      <point x="753" y="114"/>
      <point x="753" y="117"/>
      <point x="753" y="118" type="curve" smooth="yes"/>
      <point x="753" y="127"/>
      <point x="748" y="132"/>
      <point x="736" y="132" type="curve" smooth="yes"/>
      <point x="666" y="132" type="line" smooth="yes"/>
      <point x="653" y="132"/>
      <point x="645" y="125"/>
      <point x="643" y="113" type="curve" smooth="yes"/>
    </contour>
  </outline>
</glyph>
<glyph name="guilsinglright" format="1">
  <advance width="367"/>
  <unicode hex="203A"/>
  <note>
    GF Latin Plus glyph
  </note>
  <outline>
    <contour>
      <point x="365" y="279" type="line"/>
      <point x="180" y="496" type="line"/>
      <point x="107" y="435" type="line"/>
      <point x="239" y="280" type="line"/>
      <point x="59" y="126" type="line"/>
      <point x="110" y="62" type="line"/>
    </contour>
  </outline>
</glyph>
<glyph name="eightsuperior" format="1">
  <advance width="417"/>
  <unicode hex="2078"/>
  <outline>
    <contour>
      <point x="253" y="690" type="curve" smooth="yes"/>
      <point x="257" y="721" type="line" smooth="yes"/>
      <point x="262" y="751"/>
      <point x="276" y="763"/>
      <point x="306" y="763" type="curve" smooth="yes"/>
      <point x="356" y="763" type="line" smooth="yes"/>
      <point x="378" y="763"/>
      <point x="389" y="754"/>
      <point x="389" y="735" type="curve" smooth="yes"/>
      <point x="389" y="731"/>
      <point x="388" y="723"/>
      <point x="387" y="718" type="curve" smooth="yes"/>
      <point x="382" y="687" type="line" smooth="yes"/>
      <point x="379" y="666"/>
      <point x="365" y="645"/>
      <point x="336" y="645" type="curve" smooth="yes"/>
      <point x="287" y="645" type="line" smooth="yes"/>
      <point x="263" y="645"/>
      <point x="251" y="658"/>
      <point x="251" y="674" type="curve" smooth="yes"/>
      <point x="251" y="679"/>
      <point x="252" y="684"/>
    </contour>
    <contour>
      <point x="212" y="480" type="curve" smooth="yes"/>
      <point x="219" y="520" type="line" smooth="yes"/>
      <point x="224" y="551"/>
      <point x="254" y="562"/>
      <point x="273" y="562" type="curve" smooth="yes"/>
      <point x="323" y="562" type="line" smooth="yes"/>
      <point x="352" y="562"/>
      <point x="365" y="555"/>
      <point x="365" y="534" type="curve" smooth="yes"/>
      <point x="365" y="530"/>
      <point x="364" y="526"/>
      <point x="363" y="520" type="curve" smooth="yes"/>
      <point x="356" y="477" type="line" smooth="yes"/>
      <point x="352" y="450"/>
      <point x="335" y="435"/>
      <point x="303" y="435" type="curve" smooth="yes"/>
      <point x="253" y="435" type="line" smooth="yes"/>
      <point x="229" y="435"/>
      <point x="210" y="443"/>
      <point x="210" y="465" type="curve" smooth="yes"/>
      <point x="210" y="468"/>
      <point x="211" y="475"/>
    </contour>
    <contour>
      <point x="109" y="458" type="line" smooth="yes"/>
      <point x="107" y="450"/>
      <point x="107" y="442"/>
      <point x="107" y="434" type="curve" smooth="yes"/>
      <point x="107" y="369"/>
      <point x="161" y="352"/>
      <point x="223" y="352" type="curve" smooth="yes"/>
      <point x="314" y="352" type="line" smooth="yes"/>
      <point x="382" y="352"/>
      <point x="439" y="372"/>
      <point x="453" y="458" type="curve" smooth="yes"/>
      <point x="464" y="527" type="line" smooth="yes"/>
      <point x="464" y="534"/>
      <point x="466" y="541"/>
      <point x="466" y="550" type="curve" smooth="yes"/>
      <point x="466" y="577"/>
      <point x="456" y="604"/>
      <point x="423" y="611" type="curve"/>
      <point x="460" y="618"/>
      <point x="475" y="666"/>
      <point x="480" y="689" type="curve" smooth="yes"/>
      <point x="488" y="745" type="line" smooth="yes"/>
      <point x="490" y="753"/>
      <point x="490" y="760"/>
      <point x="490" y="767" type="curve" smooth="yes"/>
      <point x="490" y="823"/>
      <point x="447" y="846"/>
      <point x="391" y="846" type="curve" smooth="yes"/>
      <point x="297" y="846" type="line" smooth="yes"/>
      <point x="234" y="846"/>
      <point x="176" y="818"/>
      <point x="164" y="745" type="curve" smooth="yes"/>
      <point x="157" y="699" type="line" smooth="yes"/>
      <point x="154" y="679"/>
      <point x="152" y="668"/>
      <point x="152" y="658" type="curve" smooth="yes"/>
      <point x="152" y="636"/>
      <point x="161" y="617"/>
      <point x="187" y="603" type="curve"/>
      <point x="156" y="596"/>
      <point x="125" y="563"/>
      <point x="121" y="533" type="curve" smooth="yes"/>
    </contour>
  </outline>
</glyph>
<glyph name="dong" format="1">
  <advance width="609"/>
  <unicode hex="20AB"/>
  <note>
    GF Latin Plus glyph
  </note>
  <outline>
    <contour>
      <point x="62" y="-41" type="line"/>
      <point x="548" y="-41" type="line"/>
      <point x="563" y="60" type="line"/>
      <point x="78" y="60" type="line"/>
    </contour>
    <contour>
      <point x="383" y="660" type="line"/>
      <point x="694" y="660" type="line"/>
      <point x="702" y="710" type="line"/>
      <point x="391" y="710" type="line"/>
    </contour>
    <contour>
      <point x="373" y="490" type="curve" smooth="yes"/>
      <point x="414" y="490"/>
      <point x="445" y="479"/>
      <point x="478" y="467" type="curve"/>
      <point x="447" y="273" type="line"/>
      <point x="416" y="256"/>
      <point x="375" y="238"/>
      <point x="326" y="238" type="curve" smooth="yes"/>
      <point x="262" y="238"/>
      <point x="232" y="259"/>
      <point x="232" y="319" type="curve" smooth="yes"/>
      <point x="232" y="401"/>
      <point x="276" y="490"/>
    </contour>
    <contour>
      <point x="105" y="289" type="curve" smooth="yes"/>
      <point x="105" y="182"/>
      <point x="161" y="138"/>
      <point x="268" y="138" type="curve" smooth="yes"/>
      <point x="325" y="138"/>
      <point x="397" y="166"/>
      <point x="434" y="196" type="curve"/>
      <point x="447" y="144" type="line"/>
      <point x="550" y="144" type="line"/>
      <point x="651" y="783" type="line"/>
      <point x="528" y="783" type="line"/>
      <point x="492" y="556" type="line"/>
      <point x="454" y="570"/>
      <point x="402" y="583"/>
      <point x="349" y="583" type="curve" smooth="yes"/>
      <point x="171" y="583"/>
      <point x="105" y="421"/>
    </contour>
  </outline>
</glyph>
<glyph name="s_t" format="1">
  <advance width="869"/>
  <unicode hex="FB06"/>
  <outline>
    <contour>
      <point x="55" y="15" type="line"/>
      <point x="101" y="1"/>
      <point x="190" y="-6"/>
      <point x="269" y="-6" type="curve" smooth="yes"/>
      <point x="392" y="-6"/>
      <point x="473" y="29"/>
      <point x="488" y="125" type="curve" smooth="yes"/>
      <point x="495" y="173" type="line" smooth="yes"/>
      <point x="497" y="187"/>
      <point x="498" y="200"/>
      <point x="498" y="212" type="curve" smooth="yes"/>
      <point x="498" y="278"/>
      <point x="443" y="317"/>
      <point x="362" y="317" type="curve" smooth="yes"/>
      <point x="268" y="317" type="line" smooth="yes"/>
      <point x="226" y="317"/>
      <point x="211" y="327"/>
      <point x="211" y="349" type="curve" smooth="yes"/>
      <point x="211" y="355"/>
      <point x="212" y="363"/>
      <point x="214" y="374" type="curve" smooth="yes"/>
      <point x="217" y="395" type="line" smooth="yes"/>
      <point x="225" y="432"/>
      <point x="247" y="447"/>
      <point x="302" y="447" type="curve" smooth="yes"/>
      <point x="712" y="447" type="line"/>
      <point x="678" y="525" type="line"/>
      <point x="590" y="534"/>
      <point x="445" y="542"/>
      <point x="325" y="542" type="curve" smooth="yes"/>
      <point x="174" y="542"/>
      <point x="121" y="485"/>
      <point x="107" y="403" type="curve" smooth="yes"/>
      <point x="100" y="364" type="line" smooth="yes"/>
      <point x="97" y="348"/>
      <point x="97" y="333"/>
      <point x="97" y="319" type="curve" smooth="yes"/>
      <point x="97" y="247"/>
      <point x="156" y="217"/>
      <point x="244" y="217" type="curve" smooth="yes"/>
      <point x="330" y="217" type="line" smooth="yes"/>
      <point x="364" y="217"/>
      <point x="382" y="204"/>
      <point x="382" y="178" type="curve" smooth="yes"/>
      <point x="382" y="175"/>
      <point x="382" y="172"/>
      <point x="381" y="166" type="curve" smooth="yes"/>
      <point x="377" y="138" type="line" smooth="yes"/>
      <point x="371" y="102"/>
      <point x="341" y="88"/>
      <point x="296" y="88" type="curve" smooth="yes"/>
      <point x="66" y="88" type="line"/>
    </contour>
    <contour>
      <point x="653" y="456" type="line"/>
      <point x="609" y="210" type="line" smooth="yes"/>
      <point x="602" y="174"/>
      <point x="599" y="144"/>
      <point x="599" y="119" type="curve" smooth="yes"/>
      <point x="599" y="39"/>
      <point x="650" y="0"/>
      <point x="751" y="0" type="curve" smooth="yes"/>
      <point x="828" y="0" type="line"/>
      <point x="843" y="91" type="line"/>
      <point x="781" y="97" type="line" smooth="yes"/>
      <point x="742" y="101"/>
      <point x="724" y="116"/>
      <point x="724" y="152" type="curve" smooth="yes"/>
      <point x="724" y="169"/>
      <point x="729" y="194"/>
      <point x="731" y="209" type="curve" smooth="yes"/>
      <point x="767" y="436" type="line"/>
      <point x="903" y="436" type="line"/>
      <point x="919" y="536" type="line"/>
      <point x="782" y="536" type="line"/>
      <point x="806" y="686" type="line"/>
      <point x="709" y="686" type="line"/>
      <point x="659" y="506" type="line"/>
    </contour>
  </outline>
</glyph>
<glyph name="A.smcp" format="1">
  <advance width="582"/>
  <note>
    GF Latin Plus glyph
  </note>
  <outline>
    <contour>
      <point x="252" y="217" type="line"/>
      <point x="366" y="464" type="line"/>
      <point x="400" y="217" type="line"/>
    </contour>
    <contour>
      <point x="31" y="0" type="line"/>
      <point x="152" y="0" type="line"/>
      <point x="209" y="118" type="line"/>
      <point x="412" y="118" type="line"/>
      <point x="431" y="0" type="line"/>
      <point x="553" y="0" type="line"/>
      <point x="456" y="560" type="line"/>
      <point x="308" y="560" type="line"/>
    </contour>
    <contour>
      <point x="391" y="650" type="move" name="top"/>
    </contour>
    <contour>
      <point x="466" y="0" type="move" name="ogonek"/>
    </contour>
    <contour>
      <point x="269" y="-150" type="move" name="bottom"/>
    </contour>
  </outline>
</glyph>
<glyph name="AE.smcp" format="1">
  <advance width="809"/>
  <note>
    GF Latin Plus glyph
  </note>
  <outline>
    <contour>
      <point x="299" y="212" type="line"/>
      <point x="455" y="427" type="line"/>
      <point x="421" y="212" type="line"/>
    </contour>
    <contour>
      <point x="22" y="0" type="line"/>
      <point x="139" y="0" type="line"/>
      <point x="232" y="117" type="line"/>
      <point x="408" y="117" type="line"/>
      <point x="403" y="73" type="line" smooth="yes"/>
      <point x="401" y="11"/>
      <point x="447" y="-5"/>
      <point x="530" y="-4" type="curve" smooth="yes"/>
      <point x="561" y="-4"/>
      <point x="701" y="1"/>
      <point x="762" y="8" type="curve"/>
      <point x="776" y="100" type="line"/>
      <point x="576" y="100" type="line" smooth="yes"/>
      <point x="536" y="100"/>
      <point x="510" y="109"/>
      <point x="517" y="150" type="curve" smooth="yes"/>
      <point x="530" y="229" type="line"/>
      <point x="760" y="235" type="line"/>
      <point x="774" y="323" type="line"/>
      <point x="546" y="329" type="line"/>
      <point x="557" y="402" type="line" smooth="yes"/>
      <point x="564" y="445"/>
      <point x="572" y="457"/>
      <point x="623" y="457" type="curve" smooth="yes"/>
      <point x="833" y="457" type="line"/>
      <point x="847" y="550" type="line"/>
      <point x="782" y="556"/>
      <point x="657" y="560"/>
      <point x="616" y="560" type="curve" smooth="yes"/>
      <point x="511" y="560"/>
      <point x="417" y="535"/>
      <point x="337" y="425" type="curve" smooth="yes"/>
    </contour>
    <contour>
      <point x="542" y="650" type="move" name="top"/>
    </contour>
  </outline>
</glyph>
<glyph name="Eng.smcp" format="1">
  <advance width="580"/>
  <note>
    GF Latin Plus glyph
  </note>
  <outline>
    <contour>
      <point x="242" y="-169" type="line"/>
      <point x="264" y="-176"/>
      <point x="301" y="-184"/>
      <point x="337" y="-184" type="curve" smooth="yes"/>
      <point x="448" y="-184"/>
      <point x="503" y="-135"/>
      <point x="517" y="-41" type="curve" smooth="yes"/>
      <point x="531" y="45" type="line"/>
      <point x="413" y="43" type="line"/>
      <point x="402" y="-24" type="line" smooth="yes"/>
      <point x="395" y="-66"/>
      <point x="371" y="-84"/>
      <point x="330" y="-84" type="curve" smooth="yes"/>
      <point x="324" y="-84"/>
      <point x="262" y="-82"/>
      <point x="256" y="-80" type="curve"/>
    </contour>
    <component base="N.smcp"/>
  </outline>
</glyph>
<glyph name="Eth.smcp" format="1">
  <advance width="575"/>
  <note>
    GF Latin Plus glyph
  </note>
  <outline>
    <contour>
      <point x="54" y="246" type="line"/>
      <point x="320" y="246" type="line"/>
      <point x="332" y="318" type="line"/>
      <point x="66" y="318" type="line"/>
    </contour>
    <component base="D.smcp"/>
  </outline>
</glyph>
<glyph name="K.smcp" format="1">
  <advance width="538"/>
  <note>
    GF Latin Plus glyph
  </note>
  <outline>
    <contour>
      <point x="61" y="0" type="line"/>
      <point x="179" y="0" type="line"/>
      <point x="216" y="231" type="line"/>
      <point x="301" y="231" type="line"/>
      <point x="401" y="0" type="line"/>
      <point x="518" y="0" type="line"/>
      <point x="398" y="279" type="line"/>
      <point x="593" y="560" type="line"/>
      <point x="473" y="560" type="line"/>
      <point x="311" y="331" type="line"/>
      <point x="232" y="331" type="line"/>
      <point x="268" y="560" type="line"/>
      <point x="150" y="560" type="line"/>
    </contour>
    <contour>
      <point x="367" y="650" type="move" name="top"/>
    </contour>
    <contour>
      <point x="241" y="-150" type="move" name="bottom"/>
    </contour>
  </outline>
</glyph>
<glyph name="N.salt" format="1">
  <advance width="770"/>
  <outline>
    <contour>
      <point x="77" y="0" type="line"/>
      <point x="201" y="0" type="line"/>
      <point x="293" y="585" type="line" smooth="yes"/>
      <point x="298" y="615"/>
      <point x="312" y="622"/>
      <point x="329" y="622" type="curve" smooth="yes"/>
      <point x="343" y="622"/>
      <point x="350" y="613"/>
      <point x="353" y="598" type="curve" smooth="yes"/>
      <point x="440" y="111" type="line" smooth="yes"/>
      <point x="453" y="33"/>
      <point x="490" y="-6"/>
      <point x="565" y="-6" type="curve" smooth="yes"/>
      <point x="648" y="-6"/>
      <point x="714" y="28"/>
      <point x="732" y="135" type="curve" smooth="yes"/>
      <point x="827" y="738" type="line"/>
      <point x="703" y="738" type="line"/>
      <point x="610" y="150" type="line" smooth="yes"/>
      <point x="606" y="124"/>
      <point x="592" y="117"/>
      <point x="577" y="117" type="curve" smooth="yes"/>
      <point x="561" y="117"/>
      <point x="553" y="125"/>
      <point x="550" y="141" type="curve" smooth="yes"/>
      <point x="465" y="623" type="line" smooth="yes"/>
      <point x="453" y="695"/>
      <point x="422" y="745"/>
      <point x="338" y="745" type="curve" smooth="yes"/>
      <point x="255" y="745"/>
      <point x="189" y="709"/>
      <point x="172" y="597" type="curve" smooth="yes"/>
    </contour>
    <contour>
      <point x="540" y="810" type="move" name="top"/>
    </contour>
    <contour>
      <point x="376" y="-150" type="move" name="bottom"/>
    </contour>
  </outline>
</glyph>
<glyph name="P.smcp" format="1">
  <advance width="513"/>
  <note>
    GF Latin Plus glyph
  </note>
  <outline>
    <contour>
      <point x="223" y="275" type="line"/>
      <point x="253" y="460" type="line"/>
      <point x="365" y="460" type="line" smooth="yes"/>
      <point x="403" y="460"/>
      <point x="422" y="444"/>
      <point x="423" y="404" type="curve" smooth="yes"/>
      <point x="423" y="393"/>
      <point x="422" y="377"/>
      <point x="419" y="360" type="curve" smooth="yes"/>
      <point x="409" y="300"/>
      <point x="379" y="275"/>
      <point x="334" y="275" type="curve" smooth="yes"/>
    </contour>
    <contour>
      <point x="61" y="0" type="line"/>
      <point x="179" y="0" type="line"/>
      <point x="209" y="188" type="line"/>
      <point x="242" y="182"/>
      <point x="300" y="175"/>
      <point x="351" y="175" type="curve" smooth="yes"/>
      <point x="431" y="175"/>
      <point x="515" y="216"/>
      <point x="535" y="339" type="curve" smooth="yes"/>
      <point x="540" y="370"/>
      <point x="543" y="396"/>
      <point x="543" y="417" type="curve" smooth="yes"/>
      <point x="543" y="530"/>
      <point x="474" y="560"/>
      <point x="387" y="560" type="curve" smooth="yes"/>
      <point x="150" y="560" type="line"/>
    </contour>
    <contour>
      <point x="346" y="650" type="move" name="top"/>
    </contour>
  </outline>
</glyph>
<glyph name="Q.smcp" format="1">
  <advance width="583"/>
  <note>
    GF Latin Plus glyph
  </note>
  <outline>
    <contour>
      <point x="264" y="-29" type="line"/>
      <point x="266" y="-114"/>
      <point x="329" y="-148"/>
      <point x="410" y="-148" type="curve" smooth="yes"/>
      <point x="430" y="-148"/>
      <point x="446" y="-146"/>
      <point x="461" y="-143" type="curve"/>
      <point x="474" y="-62" type="line"/>
      <point x="454" y="-66"/>
      <point x="431" y="-69"/>
      <point x="410" y="-69" type="curve" smooth="yes"/>
      <point x="371" y="-69"/>
      <point x="350" y="-59"/>
      <point x="345" y="-29" type="curve"/>
    </contour>
    <component base="O.smcp"/>
  </outline>
</glyph>
<glyph name="Tbar.smcp" format="1">
  <advance width="506"/>
  <note>
    GF Latin Plus glyph
  </note>
  <outline>
    <contour>
      <point x="97" y="262" type="line"/>
      <point x="490" y="262" type="line"/>
      <point x="499" y="318" type="line"/>
      <point x="106" y="318" type="line"/>
    </contour>
    <component base="T.smcp"/>
  </outline>
</glyph>
<glyph name="Uhorn.smcp" format="1">
  <advance width="576"/>
  <outline>
    <contour>
      <point x="493" y="492" type="line"/>
      <point x="537" y="492" type="line" smooth="yes"/>
      <point x="617" y="492"/>
      <point x="684" y="548"/>
      <point x="703" y="671" type="curve"/>
      <point x="616" y="671" type="line"/>
      <point x="604" y="588"/>
      <point x="571" y="560"/>
      <point x="525" y="560" type="curve" smooth="yes"/>
      <point x="503" y="560" type="line"/>
    </contour>
    <component base="U.smcp"/>
    <contour>
      <point x="384" y="650" type="move" name="top"/>
    </contour>
    <contour>
      <point x="258" y="-150" type="move" name="bottom"/>
    </contour>
  </outline>
</glyph>
<glyph name="asterisk.smcp" format="1">
  <advance width="373"/>
  <note>
    GF Latin Plus glyph
  </note>
  <outline>
    <contour>
      <point x="273" y="422" type="line"/>
      <point x="304" y="388" type="line"/>
      <point x="395" y="456" type="line"/>
      <point x="374" y="490" type="line"/>
    </contour>
    <contour>
      <point x="230" y="547" type="line"/>
      <point x="254" y="444" type="line"/>
      <point x="306" y="469" type="line"/>
      <point x="274" y="560" type="line"/>
    </contour>
    <contour>
      <point x="222" y="353" type="line"/>
      <point x="309" y="304" type="line"/>
      <point x="340" y="337" type="line"/>
      <point x="254" y="398" type="line"/>
    </contour>
    <contour>
      <point x="134" y="315" type="line"/>
      <point x="173" y="302" type="line"/>
      <point x="223" y="407" type="line"/>
      <point x="172" y="414" type="line"/>
    </contour>
    <contour>
      <point x="106" y="434" type="line"/>
      <point x="222" y="435" type="line"/>
      <point x="223" y="486" type="line"/>
      <point x="113" y="475" type="line"/>
    </contour>
  </outline>
</glyph>
<glyph name="brevecomb_acutecomb" format="1">
  <outline>
    <contour>
      <point x="-403" y="731" type="line"/>
      <point x="-404" y="722"/>
      <point x="-405" y="714"/>
      <point x="-405" y="706" type="curve" smooth="yes"/>
      <point x="-405" y="641"/>
      <point x="-357" y="614"/>
      <point x="-285" y="614" type="curve" smooth="yes"/>
      <point x="-203" y="614"/>
      <point x="-142" y="647"/>
      <point x="-129" y="731" type="curve"/>
      <point x="-188" y="731" type="line"/>
      <point x="-197" y="677"/>
      <point x="-243" y="665"/>
      <point x="-279" y="665" type="curve" smooth="yes"/>
      <point x="-314" y="665"/>
      <point x="-346" y="679"/>
      <point x="-346" y="718" type="curve" smooth="yes"/>
      <point x="-346" y="722"/>
      <point x="-346" y="726"/>
      <point x="-345" y="731" type="curve"/>
    </contour>
    <component base="acutecomb" yOffset="118"/>
    <contour>
      <point x="-269" y="650" type="move" name="_top"/>
    </contour>
  </outline>
</glyph>
<glyph name="c_t" format="1">
  <advance width="837"/>
  <outline>
    <contour>
      <point x="614" y="457" type="line"/>
      <point x="570" y="210" type="line" smooth="yes"/>
      <point x="564" y="174"/>
      <point x="561" y="144"/>
      <point x="561" y="119" type="curve" smooth="yes"/>
      <point x="561" y="39"/>
      <point x="612" y="0"/>
      <point x="713" y="0" type="curve" smooth="yes"/>
      <point x="790" y="0" type="line"/>
      <point x="804" y="91" type="line"/>
      <point x="742" y="97" type="line" smooth="yes"/>
      <point x="703" y="101"/>
      <point x="686" y="116"/>
      <point x="686" y="152" type="curve" smooth="yes"/>
      <point x="686" y="169"/>
      <point x="690" y="194"/>
      <point x="692" y="209" type="curve" smooth="yes"/>
      <point x="729" y="436" type="line"/>
      <point x="865" y="436" type="line"/>
      <point x="880" y="536" type="line"/>
      <point x="744" y="536" type="line"/>
      <point x="768" y="686" type="line"/>
      <point x="671" y="686" type="line"/>
      <point x="630" y="536" type="line"/>
    </contour>
    <contour>
      <point x="88" y="289" type="curve" smooth="yes"/>
      <point x="82" y="252"/>
      <point x="79" y="218"/>
      <point x="79" y="194" type="curve" smooth="yes"/>
      <point x="79" y="39"/>
      <point x="154" y="-6"/>
      <point x="272" y="-6" type="curve" smooth="yes"/>
      <point x="349" y="-6"/>
      <point x="403" y="4"/>
      <point x="448" y="18" type="curve"/>
      <point x="459" y="88" type="line"/>
      <point x="311" y="88" type="line" smooth="yes"/>
      <point x="240" y="88"/>
      <point x="202" y="117"/>
      <point x="202" y="205" type="curve" smooth="yes"/>
      <point x="202" y="218"/>
      <point x="204" y="238"/>
      <point x="209" y="267" type="curve" smooth="yes"/>
      <point x="230" y="395"/>
      <point x="276" y="446"/>
      <point x="364" y="446" type="curve" smooth="yes"/>
      <point x="670" y="446" type="line"/>
      <point x="691" y="539" type="line"/>
      <point x="671" y="540"/>
      <point x="403" y="542"/>
      <point x="349" y="542" type="curve" smooth="yes"/>
      <point x="221" y="542"/>
      <point x="117" y="473"/>
    </contour>
  </outline>
</glyph>
<glyph name="commaaccentcomb" format="1">
  <note>
    GF Latin Plus glyph
  </note>
  <outline>
    <contour>
      <point x="-414" y="-160" type="line"/>
      <point x="-423" y="-211" type="line"/>
      <point x="-376" y="-211" type="line" smooth="yes"/>
      <point x="-286" y="-211"/>
      <point x="-255" y="-170"/>
      <point x="-239" y="-69" type="curve"/>
      <point x="-315" y="-69" type="line"/>
      <point x="-325" y="-136"/>
      <point x="-343" y="-145"/>
      <point x="-385" y="-154" type="curve" smooth="yes"/>
    </contour>
    <contour>
      <point x="-328" y="-150" type="move" name="_bottom"/>
    </contour>
  </outline>
</glyph>
<glyph name="commaturnedabovecomb" format="1">
  <note>
    GF Latin Plus glyph
  </note>
  <outline>
    <contour>
      <point x="-104" y="716" type="line"/>
      <point x="-95" y="766" type="line"/>
      <point x="-142" y="766" type="line" smooth="yes"/>
      <point x="-232" y="766"/>
      <point x="-263" y="725"/>
      <point x="-279" y="624" type="curve"/>
      <point x="-203" y="624" type="line"/>
      <point x="-194" y="691"/>
      <point x="-175" y="701"/>
      <point x="-133" y="709" type="curve" smooth="yes"/>
    </contour>
    <contour>
      <point x="-212" y="650" type="move" name="_top"/>
    </contour>
  </outline>
</glyph>
<glyph name="d.salt" format="1">
  <advance width="569"/>
  <outline>
    <contour>
      <point x="209" y="268" type="curve" smooth="yes"/>
      <point x="233" y="402"/>
      <point x="275" y="442"/>
      <point x="363" y="442" type="curve" smooth="yes"/>
      <point x="403" y="442"/>
      <point x="431" y="434"/>
      <point x="455" y="421" type="curve"/>
      <point x="407" y="118" type="line"/>
      <point x="371" y="102"/>
      <point x="333" y="94"/>
      <point x="283" y="94" type="curve" smooth="yes"/>
      <point x="239" y="94"/>
      <point x="202" y="120"/>
      <point x="202" y="198" type="curve" smooth="yes"/>
      <point x="202" y="220"/>
      <point x="204" y="242"/>
    </contour>
    <contour>
      <point x="89" y="290" type="curve" smooth="yes"/>
      <point x="82" y="251"/>
      <point x="78" y="213"/>
      <point x="78" y="177" type="curve" smooth="yes"/>
      <point x="78" y="60"/>
      <point x="135" y="-6"/>
      <point x="274" y="-6" type="curve" smooth="yes"/>
      <point x="334" y="-6"/>
      <point x="419" y="9"/>
      <point x="519" y="39" type="curve"/>
      <point x="633" y="763" type="line"/>
      <point x="509" y="763" type="line"/>
      <point x="472" y="523" type="line"/>
      <point x="438" y="537"/>
      <point x="400" y="542"/>
      <point x="358" y="542" type="curve" smooth="yes"/>
      <point x="172" y="542"/>
      <point x="119" y="445"/>
    </contour>
    <contour>
      <point x="636" y="650" type="move" name="altcaron"/>
    </contour>
    <contour>
      <point x="585" y="850" type="move" name="top"/>
    </contour>
    <contour>
      <point x="251" y="-150" type="move" name="bottom"/>
    </contour>
  </outline>
</glyph>
<glyph name="eight.tnum" format="1">
  <advance width="609"/>
  <outline>
    <contour>
      <point x="270" y="506" type="curve" smooth="yes"/>
      <point x="278" y="561" type="line" smooth="yes"/>
      <point x="288" y="620"/>
      <point x="314" y="639"/>
      <point x="366" y="639" type="curve" smooth="yes"/>
      <point x="452" y="639" type="line" smooth="yes"/>
      <point x="489" y="639"/>
      <point x="511" y="627"/>
      <point x="511" y="586" type="curve" smooth="yes"/>
      <point x="511" y="579"/>
      <point x="510" y="570"/>
      <point x="508" y="561" type="curve" smooth="yes"/>
      <point x="500" y="506" type="line" smooth="yes"/>
      <point x="494" y="466"/>
      <point x="472" y="430"/>
      <point x="416" y="430" type="curve" smooth="yes"/>
      <point x="332" y="430" type="line" smooth="yes"/>
      <point x="288" y="430"/>
      <point x="268" y="449"/>
      <point x="268" y="484" type="curve" smooth="yes"/>
      <point x="268" y="490"/>
      <point x="269" y="497"/>
    </contour>
    <contour>
      <point x="206" y="174" type="curve" smooth="yes"/>
      <point x="218" y="249" type="line" smooth="yes"/>
      <point x="226" y="302"/>
      <point x="278" y="324"/>
      <point x="315" y="324" type="curve" smooth="yes"/>
      <point x="400" y="324" type="line" smooth="yes"/>
      <point x="451" y="324"/>
      <point x="473" y="306"/>
      <point x="473" y="268" type="curve" smooth="yes"/>
      <point x="473" y="262"/>
      <point x="472" y="256"/>
      <point x="471" y="249" type="curve" smooth="yes"/>
      <point x="459" y="174" type="line" smooth="yes"/>
      <point x="452" y="127"/>
      <point x="427" y="102"/>
      <point x="367" y="102" type="curve" smooth="yes"/>
      <point x="280" y="102" type="line" smooth="yes"/>
      <point x="234" y="102"/>
      <point x="204" y="117"/>
      <point x="204" y="156" type="curve" smooth="yes"/>
      <point x="204" y="162"/>
      <point x="205" y="167"/>
    </contour>
    <contour>
      <point x="78" y="152" type="line" smooth="yes"/>
      <point x="77" y="140"/>
      <point x="76" y="128"/>
      <point x="76" y="118" type="curve" smooth="yes"/>
      <point x="76" y="23"/>
      <point x="150" y="-4"/>
      <point x="243" y="-4" type="curve" smooth="yes"/>
      <point x="378" y="-4" type="line" smooth="yes"/>
      <point x="479" y="-4"/>
      <point x="560" y="31"/>
      <point x="579" y="152" type="curve" smooth="yes"/>
      <point x="597" y="259" type="line" smooth="yes"/>
      <point x="598" y="269"/>
      <point x="599" y="280"/>
      <point x="599" y="292" type="curve" smooth="yes"/>
      <point x="599" y="335"/>
      <point x="582" y="376"/>
      <point x="533" y="387" type="curve"/>
      <point x="587" y="399"/>
      <point x="614" y="467"/>
      <point x="621" y="505" type="curve" smooth="yes"/>
      <point x="634" y="590" type="line" smooth="yes"/>
      <point x="636" y="603"/>
      <point x="638" y="615"/>
      <point x="638" y="627" type="curve" smooth="yes"/>
      <point x="638" y="711"/>
      <point x="578" y="744"/>
      <point x="496" y="744" type="curve" smooth="yes"/>
      <point x="356" y="744" type="line" smooth="yes"/>
      <point x="264" y="744"/>
      <point x="180" y="702"/>
      <point x="162" y="590" type="curve" smooth="yes"/>
      <point x="149" y="505" type="line" smooth="yes"/>
      <point x="147" y="491"/>
      <point x="145" y="477"/>
      <point x="145" y="464" type="curve" smooth="yes"/>
      <point x="145" y="428"/>
      <point x="159" y="396"/>
      <point x="200" y="375" type="curve"/>
      <point x="151" y="365"/>
      <point x="105" y="317"/>
      <point x="95" y="255" type="curve" smooth="yes"/>
    </contour>
  </outline>
</glyph>
<glyph name="exclam.smcp" format="1">
  <advance width="243"/>
  <note>
    GF Latin Plus glyph
  </note>
  <outline>
    <contour>
      <point x="105" y="177" type="line"/>
      <point x="192" y="177" type="line"/>
      <point x="268" y="559" type="line"/>
      <point x="150" y="559" type="line"/>
    </contour>
    <component base="period" xOffset="11"/>
  </outline>
</glyph>
<glyph name="f.salt" format="1">
  <advance width="357"/>
  <outline>
    <contour>
      <point x="65" y="0" type="line"/>
      <point x="189" y="0" type="line"/>
      <point x="258" y="436" type="line"/>
      <point x="399" y="436" type="line"/>
      <point x="415" y="536" type="line"/>
      <point x="274" y="536" type="line"/>
      <point x="282" y="587" type="line" smooth="yes"/>
      <point x="291" y="642"/>
      <point x="309" y="668"/>
      <point x="364" y="668" type="curve" smooth="yes"/>
      <point x="449" y="668" type="line"/>
      <point x="463" y="756" type="line"/>
      <point x="438" y="762"/>
      <point x="403" y="769"/>
      <point x="357" y="769" type="curve" smooth="yes"/>
      <point x="232" y="769"/>
      <point x="177" y="709"/>
      <point x="157" y="581" type="curve" smooth="yes"/>
    </contour>
    <contour>
      <point x="347" y="850" type="move" name="top"/>
    </contour>
  </outline>
</glyph>
<glyph name="four.tosf" format="1">
  <advance width="609"/>
  <outline>
    <contour>
      <point x="60" y="74" type="line"/>
      <point x="75" y="12" type="line"/>
      <point x="397" y="12" type="line"/>
      <point x="368" y="-176" type="line"/>
      <point x="491" y="-176" type="line"/>
      <point x="521" y="12" type="line"/>
      <point x="597" y="34" type="line"/>
      <point x="610" y="118" type="line"/>
      <point x="538" y="118" type="line"/>
      <point x="574" y="345" type="line"/>
      <point x="476" y="345" type="line"/>
      <point x="434" y="246" type="line"/>
      <point x="414" y="118" type="line"/>
      <point x="213" y="118" type="line"/>
      <point x="454" y="539" type="line"/>
      <point x="328" y="539" type="line"/>
    </contour>
  </outline>
</glyph>
<glyph name="liraTurkish.smcp" format="1">
  <advance width="513"/>
  <note>
    GF Latin Plus glyph
  </note>
  <outline>
    <contour>
      <point x="67" y="295" type="line"/>
      <point x="455" y="470" type="line"/>
      <point x="463" y="526" type="line"/>
      <point x="76" y="352" type="line"/>
    </contour>
    <contour>
      <point x="85" y="0" type="line"/>
      <point x="203" y="0" type="line" smooth="yes"/>
      <point x="363" y="0"/>
      <point x="488" y="53"/>
      <point x="523" y="274" type="curve"/>
      <point x="417" y="274" type="line"/>
      <point x="397" y="150"/>
      <point x="327" y="100"/>
      <point x="219" y="100" type="curve"/>
      <point x="292" y="560" type="line"/>
      <point x="174" y="560" type="line"/>
    </contour>
    <contour>
      <point x="48" y="180" type="line"/>
      <point x="436" y="354" type="line"/>
      <point x="446" y="411" type="line"/>
      <point x="57" y="236" type="line"/>
    </contour>
  </outline>
</glyph>
<glyph name="m.salt" format="1">
  <advance width="901"/>
  <outline>
    <contour>
      <point x="63" y="0" type="line"/>
      <point x="187" y="0" type="line"/>
      <point x="251" y="404" type="line"/>
      <point x="298" y="425"/>
      <point x="336" y="433"/>
      <point x="378" y="433" type="curve" smooth="yes"/>
      <point x="425" y="433"/>
      <point x="454" y="406"/>
      <point x="454" y="361" type="curve" smooth="yes"/>
      <point x="454" y="355"/>
      <point x="453" y="348"/>
      <point x="452" y="342" type="curve" smooth="yes"/>
      <point x="398" y="0" type="line"/>
      <point x="522" y="0" type="line"/>
      <point x="576" y="339" type="line" smooth="yes"/>
      <point x="577" y="347"/>
      <point x="578" y="354"/>
      <point x="578" y="362" type="curve" smooth="yes"/>
      <point x="579" y="373"/>
      <point x="578" y="384"/>
      <point x="577" y="392" type="curve"/>
      <point x="608" y="415"/>
      <point x="663" y="433"/>
      <point x="714" y="433" type="curve" smooth="yes"/>
      <point x="761" y="433"/>
      <point x="789" y="406"/>
      <point x="789" y="361" type="curve" smooth="yes"/>
      <point x="789" y="356"/>
      <point x="788" y="348"/>
      <point x="787" y="342" type="curve" smooth="yes"/>
      <point x="733" y="0" type="line"/>
      <point x="857" y="0" type="line"/>
      <point x="913" y="352" type="line" smooth="yes"/>
      <point x="916" y="373"/>
      <point x="918" y="392"/>
      <point x="918" y="409" type="curve" smooth="yes"/>
      <point x="918" y="490"/>
      <point x="877" y="545"/>
      <point x="769" y="545" type="curve" smooth="yes"/>
      <point x="698" y="545"/>
      <point x="612" y="522"/>
      <point x="555" y="487" type="curve"/>
      <point x="521" y="525"/>
      <point x="480" y="545"/>
      <point x="403" y="545" type="curve" smooth="yes"/>
      <point x="304" y="545"/>
      <point x="235" y="525"/>
      <point x="140" y="485" type="curve"/>
    </contour>
    <contour>
      <point x="575" y="650" type="move" name="top"/>
    </contour>
    <contour>
      <point x="436" y="-150" type="move" name="bottom"/>
    </contour>
  </outline>
</glyph>
<glyph name="parenleft.smcp" format="1">
  <advance width="334"/>
  <note>
    GF Latin Plus glyph
  </note>
  <outline>
    <contour>
      <point x="88" y="126" type="curve" smooth="yes"/>
      <point x="89" y="1"/>
      <point x="127" y="-90"/>
      <point x="179" y="-159" type="curve"/>
      <point x="284" y="-159" type="line"/>
      <point x="236" y="-66"/>
      <point x="208" y="24"/>
      <point x="207" y="132" type="curve" smooth="yes"/>
      <point x="205" y="313"/>
      <point x="300" y="521"/>
      <point x="412" y="651" type="curve"/>
      <point x="307" y="651" type="line"/>
      <point x="192" y="540"/>
      <point x="87" y="318"/>
    </contour>
  </outline>
</glyph>
<glyph name="peseta.smcp" format="1">
  <advance width="513"/>
  <note>
    GF Latin Plus glyph
  </note>
  <outline>
    <contour>
      <point x="220" y="220" type="line"/>
      <point x="258" y="460" type="line"/>
      <point x="336" y="460" type="line" smooth="yes"/>
      <point x="372" y="460"/>
      <point x="398" y="439"/>
      <point x="398" y="388" type="curve" smooth="yes"/>
      <point x="399" y="278"/>
      <point x="359" y="220"/>
      <point x="301" y="220" type="curve" smooth="yes"/>
    </contour>
    <contour>
      <point x="68" y="0" type="line"/>
      <point x="186" y="0" type="line"/>
      <point x="207" y="132" type="line"/>
      <point x="230" y="127"/>
      <point x="269" y="120"/>
      <point x="317" y="120" type="curve" smooth="yes"/>
      <point x="392" y="120"/>
      <point x="514" y="183"/>
      <point x="512" y="396" type="curve" smooth="yes"/>
      <point x="511" y="530"/>
      <point x="438" y="560"/>
      <point x="375" y="560" type="curve" smooth="yes"/>
      <point x="157" y="560" type="line"/>
    </contour>
    <contour>
      <point x="197" y="310" type="line"/>
      <point x="547" y="310" type="line"/>
      <point x="556" y="366" type="line"/>
      <point x="206" y="366" type="line"/>
    </contour>
    <contour>
      <point x="71" y="310" type="line"/>
      <point x="190" y="310" type="line"/>
      <point x="199" y="366" type="line"/>
      <point x="80" y="366" type="line"/>
    </contour>
  </outline>
</glyph>
<glyph name="peso.smcp" format="1">
  <advance width="513"/>
  <note>
    GF Latin Plus glyph
  </note>
  <outline>
    <contour>
      <point x="450" y="390" type="line"/>
      <point x="554" y="390" type="line"/>
      <point x="563" y="446" type="line"/>
      <point x="458" y="446" type="line"/>
    </contour>
    <contour>
      <point x="82" y="390" type="line"/>
      <point x="198" y="390" type="line"/>
      <point x="207" y="446" type="line"/>
      <point x="91" y="446" type="line"/>
    </contour>
    <contour>
      <point x="409" y="257" type="line"/>
      <point x="533" y="257" type="line"/>
      <point x="543" y="313" type="line"/>
      <point x="438" y="313" type="line"/>
    </contour>
    <contour>
      <point x="61" y="257" type="line"/>
      <point x="180" y="257" type="line"/>
      <point x="189" y="313" type="line"/>
      <point x="70" y="313" type="line"/>
    </contour>
    <contour>
      <point x="235" y="272" type="line"/>
      <point x="265" y="460" type="line"/>
      <point x="337" y="460" type="line" smooth="yes"/>
      <point x="370" y="460"/>
      <point x="391" y="444"/>
      <point x="392" y="402" type="curve" smooth="yes"/>
      <point x="392" y="323"/>
      <point x="352" y="272"/>
      <point x="303" y="272" type="curve" smooth="yes"/>
    </contour>
    <contour>
      <point x="86" y="0" type="line"/>
      <point x="192" y="0" type="line"/>
      <point x="222" y="183" type="line"/>
      <point x="242" y="179"/>
      <point x="278" y="171"/>
      <point x="316" y="171" type="curve" smooth="yes"/>
      <point x="412" y="171"/>
      <point x="502" y="246"/>
      <point x="500" y="430" type="curve" smooth="yes"/>
      <point x="499" y="543"/>
      <point x="429" y="560"/>
      <point x="367" y="560" type="curve" smooth="yes"/>
      <point x="175" y="560" type="line"/>
    </contour>
  </outline>
</glyph>
<glyph name="rupeeIndian.smcp" format="1">
  <advance width="513"/>
  <note>
    GF Latin Plus glyph
  </note>
  <outline>
    <contour>
      <point x="270" y="504" type="line"/>
      <point x="556" y="504" type="line"/>
      <point x="565" y="560" type="line"/>
      <point x="278" y="560" type="line"/>
    </contour>
    <contour>
      <point x="108" y="341" type="line"/>
      <point x="530" y="341" type="line"/>
      <point x="539" y="397" type="line"/>
      <point x="117" y="397" type="line"/>
    </contour>
    <contour>
      <point x="128" y="466" type="line"/>
      <point x="269" y="466" type="line" smooth="yes"/>
      <point x="301" y="466"/>
      <point x="323" y="450"/>
      <point x="324" y="398" type="curve" smooth="yes"/>
      <point x="325" y="313"/>
      <point x="277" y="269"/>
      <point x="234" y="269" type="curve" smooth="yes"/>
      <point x="97" y="269" type="line"/>
      <point x="83" y="182" type="line"/>
      <point x="119" y="181"/>
      <point x="171" y="180"/>
      <point x="198" y="181" type="curve"/>
      <point x="269" y="0" type="line"/>
      <point x="397" y="0" type="line"/>
      <point x="319" y="193" type="line"/>
      <point x="384" y="216"/>
      <point x="444" y="302"/>
      <point x="443" y="413" type="curve" smooth="yes"/>
      <point x="442" y="530"/>
      <point x="367" y="560"/>
      <point x="300" y="560" type="curve" smooth="yes"/>
      <point x="143" y="560" type="line"/>
    </contour>
  </outline>
</glyph>
<glyph name="s.superior" format="1">
  <advance width="381"/>
  <note>
    GF Latin Plus glyph
  </note>
  <outline>
    <contour>
      <point x="83" y="293" type="line"/>
      <point x="120" y="282"/>
      <point x="180" y="276"/>
      <point x="243" y="276" type="curve" smooth="yes"/>
      <point x="337" y="276"/>
      <point x="399" y="302"/>
      <point x="411" y="375" type="curve" smooth="yes"/>
      <point x="415" y="409" type="line" smooth="yes"/>
      <point x="418" y="420"/>
      <point x="418" y="430"/>
      <point x="418" y="441" type="curve" smooth="yes"/>
      <point x="418" y="489"/>
      <point x="376" y="518"/>
      <point x="314" y="518" type="curve" smooth="yes"/>
      <point x="246" y="518" type="line" smooth="yes"/>
      <point x="218" y="518"/>
      <point x="207" y="523"/>
      <point x="207" y="537" type="curve" smooth="yes"/>
      <point x="207" y="542"/>
      <point x="208" y="551"/>
      <point x="212" y="568" type="curve" smooth="yes"/>
      <point x="217" y="591"/>
      <point x="228" y="601"/>
      <point x="263" y="601" type="curve" smooth="yes"/>
      <point x="424" y="601" type="line"/>
      <point x="434" y="658" type="line"/>
      <point x="396" y="669"/>
      <point x="328" y="676"/>
      <point x="281" y="676" type="curve" smooth="yes"/>
      <point x="170" y="676"/>
      <point x="131" y="633"/>
      <point x="120" y="572" type="curve" smooth="yes"/>
      <point x="116" y="544" type="line" smooth="yes"/>
      <point x="114" y="532"/>
      <point x="113" y="522"/>
      <point x="113" y="511" type="curve" smooth="yes"/>
      <point x="113" y="456"/>
      <point x="160" y="432"/>
      <point x="225" y="432" type="curve" smooth="yes"/>
      <point x="287" y="432" type="line" smooth="yes"/>
      <point x="312" y="432"/>
      <point x="322" y="424"/>
      <point x="322" y="407" type="curve" smooth="yes"/>
      <point x="322" y="404"/>
      <point x="321" y="397"/>
      <point x="318" y="383" type="curve" smooth="yes"/>
      <point x="315" y="360"/>
      <point x="296" y="351"/>
      <point x="266" y="351" type="curve" smooth="yes"/>
      <point x="92" y="351" type="line"/>
    </contour>
    <contour>
      <point x="315" y="754" type="move" name="top"/>
    </contour>
    <contour>
      <point x="223" y="170" type="move" name="bottom"/>
    </contour>
  </outline>
</glyph>
<glyph name="zero.oldstyle.zero" format="1">
  <advance width="609"/>
  <outline>
    <contour>
      <point x="498" y="461" type="line"/>
      <point x="140" y="75" type="line"/>
      <point x="211" y="75" type="line"/>
      <point x="569" y="461" type="line"/>
    </contour>
    <component base="zero.oldstyle"/>
  </outline>
</glyph>
<glyph name="zero.tnum" format="1">
  <advance width="609"/>
  <outline>
    <contour>
      <point x="206" y="200" type="curve" smooth="yes"/>
      <point x="260" y="541" type="line" smooth="yes"/>
      <point x="269" y="601"/>
      <point x="307" y="633"/>
      <point x="364" y="633" type="curve" smooth="yes"/>
      <point x="448" y="633" type="line" smooth="yes"/>
      <point x="496" y="633"/>
      <point x="523" y="613"/>
      <point x="523" y="566" type="curve" smooth="yes"/>
      <point x="523" y="558"/>
      <point x="523" y="550"/>
      <point x="521" y="541" type="curve" smooth="yes"/>
      <point x="467" y="200" type="line" smooth="yes"/>
      <point x="457" y="140"/>
      <point x="424" y="108"/>
      <point x="360" y="108" type="curve" smooth="yes"/>
      <point x="286" y="108" type="line" smooth="yes"/>
      <point x="234" y="108"/>
      <point x="203" y="130"/>
      <point x="203" y="177" type="curve" smooth="yes"/>
      <point x="203" y="184"/>
      <point x="204" y="192"/>
    </contour>
    <contour>
      <point x="79" y="182" type="line" smooth="yes"/>
      <point x="76" y="167"/>
      <point x="75" y="152"/>
      <point x="75" y="139" type="curve" smooth="yes"/>
      <point x="75" y="43"/>
      <point x="136" y="-4"/>
      <point x="240" y="-4" type="curve" smooth="yes"/>
      <point x="374" y="-4" type="line" smooth="yes"/>
      <point x="489" y="-4"/>
      <point x="569" y="59"/>
      <point x="588" y="182" type="curve" smooth="yes"/>
      <point x="647" y="553" type="line" smooth="yes"/>
      <point x="649" y="570"/>
      <point x="651" y="585"/>
      <point x="651" y="599" type="curve" smooth="yes"/>
      <point x="651" y="690"/>
      <point x="600" y="744"/>
      <point x="494" y="744" type="curve" smooth="yes"/>
      <point x="359" y="744" type="line" smooth="yes"/>
      <point x="243" y="744"/>
      <point x="158" y="678"/>
      <point x="138" y="553" type="curve" smooth="yes"/>
    </contour>
  </outline>
</glyph>
